# xmcd CD database file
#
# Track frame offsets:
#	150
#	18951
#	36606
#	49731
#	68106
#	79281
#	100300
#	116027
#	133131
#	151806
#	172506
#
# Disc length: 2540 seconds
#
# Revision: 4
# Processed by: cddbd v1.5.2PL0 Copyright (c) Steve Scherf et al.
# Submitted via: jetAudio 7
#
DISCID=8c09ea0b
DTITLE=Мумий Тролль - Меамуры
DYEAR=2002
DGENRE=Rock
TTITLE0=В рейс
TTITLE1=На удачу
TTITLE2=Это по любви
TTITLE3=Глубже
TTITLE4=Морская капуста
TTITLE5=Плюс 28
TTITLE6=Доброе утро, планета!
TTITLE7=Стёкла
TTITLE8=Недопонимающая
TTITLE9=Знакомым столичным
TTITLE10=Обещания
EXTD=YEAR: 2002 ID3G: 17
EXTT0=
EXTT1=
EXTT2=
EXTT3=
EXTT4=
EXTT5=
EXTT6=
EXTT7=
EXTT8=
EXTT9=
EXTT10=
PLAYORDER=
